# xmcd
#
# Track frame offsets:
#	150
#	4604
#	28953
#	42872
#	50474
#	67849
#	77589
#	92775
#	98575
#	119118
#	131949
#	148401
#	152939
#	175837
#	188284
#	209056
#	223143
#	244616
#	254121
#	259119
#	271259
#	283175
#	291208
#	302317
#	307357
#	317588
#
# Disc length: 4440 seconds
#
# Revision: 332326381
# Processed by: cddbd v1.5.2PL0 Copyright (c) Steve Scherf et al.
# Submitted via: EZCDAudioConverter 8.3.2.1
#
DISCID=8f11561a
DTITLE=BOB WILLS and HIS TEXAS PLAYBOYS - HARMONY PARK AIRSHOTS JANUARY 1953
DYEAR=1900
DGENRE=Traditional Country
TTITLE0=SAN ANTONIO ROSE
TTITLE1=IN THE MOOD
TTITLE2=JAMBALAYA
TTITLE3=CRIPPLED TURKEY
TTITLE4=DUSTY SKIES
TTITLE5=YEARNING
TTITLE6=ROCK-A-BYE BABY BLUES
TTITLE7=DRAGGIN' THE BOW
TTITLE8=DEEP WATER
TTITLE9=CORINNE CORINNA
TTITLE10=DREAMY EYES WALTZ
TTITLE11=SAN ANTONIO ROSE
TTITLE12=SILVER BELL
TTITLE13=TEXAS PLAINS
TTITLE14=MEAN WOMAN WITH GREEN EYES
TTITLE15=DON'T LET THE STARS GET IN YOUR EYES
TTITLE16=FADED LOVE
TTITLE17=YEARNING
TTITLE18=BILLY IN THE LOW GROUND
TTITLE19=FOOL FOOL FOOL
TTITLE20=MAMA INEZ
TTITLE21=DONE AND GONE
TTITLE22=SITTING ON TOP OF THE WORLD
TTITLE23=HOG IN THE DOOR
TTITLE24=PLEASE DON'T LEAVE ME
TTITLE25=TEXAS PLAYBOY THEME/BEAUMONT RAG
EXTD=
EXTT0=
EXTT1=
EXTT2=
EXTT3=
EXTT4=
EXTT5=
EXTT6=
EXTT7=
EXTT8=
EXTT9=
EXTT10=
EXTT11=
EXTT12=
EXTT13=
EXTT14=
EXTT15=
EXTT16=
EXTT17=
EXTT18=
EXTT19=
EXTT20=
EXTT21=
EXTT22=
EXTT23=
EXTT24=
EXTT25=
PLAYORDER=
